HIERARCHY
ROOT Hips
{
	OFFSET 0.0000 0.0000 0.0000
	CHANNELS 6 Xposition Yposition Zposition Zrotation Xrotation Yrotation
	JOINT Ab
	{
		OFFSET -0.0000 8.1305 -0.0000
		CHANNELS 3 Zrotation Xrotation Yrotation
		JOINT Chest
		{
			OFFSET -0.0000 26.2902 -0.0000
			CHANNELS 3 Zrotation Xrotation Yrotation
			JOINT Neck
			{
				OFFSET -0.0000 26.2902 0.0000
				CHANNELS 3 Zrotation Xrotation Yrotation
				JOINT Head
				{
					OFFSET -0.0000 10.8167 0.0000
					CHANNELS 3 Zrotation Xrotation Yrotation
					End Site
					{
						OFFSET -0.0000 16.7167 0.0000
					}
				}
			}
			JOINT LeftCollar
			{
				OFFSET -0.0000 26.2902 0.0000
				CHANNELS 3 Zrotation Xrotation Yrotation
				JOINT LeftShoulder
				{
					OFFSET 19.6667 -0.0000 0.0000
					CHANNELS 3 Zrotation Xrotation Yrotation
					JOINT LeftElbow
					{
						OFFSET 27.2190 0.0000 0.0000
						CHANNELS 3 Zrotation Xrotation Yrotation
						JOINT LeftWrist
						{
							OFFSET 30.7431 0.0000 0.0000
							CHANNELS 3 Zrotation Xrotation Yrotation
							End Site
							{
								OFFSET 0.0000 -14.7500 0.0000
							}
						}
					}
				}
			}
			JOINT RightCollar
			{
				OFFSET -0.0000 26.2902 0.0000
				CHANNELS 3 Zrotation Xrotation Yrotation
				JOINT RightShoulder
				{
					OFFSET -19.6667 0.0000 0.0000
					CHANNELS 3 Zrotation Xrotation Yrotation
					JOINT RightElbow
					{
						OFFSET -27.2190 0.0000 0.0000
						CHANNELS 3 Zrotation Xrotation Yrotation
						JOINT RightWrist
						{
							OFFSET -30.7431 0.0000 0.0000
							CHANNELS 3 Zrotation Xrotation Yrotation
							End Site
							{
								OFFSET -0.0000 -14.7500 0.0000
							}
						}
					}
				}
			}
		}
	}
	JOINT LeftHip
	{
		OFFSET 11.8000 0.0000 0.0000
		CHANNELS 3 Zrotation Xrotation Yrotation
		JOINT LeftKnee
		{
			OFFSET -0.0000 -39.7832 0.0000
			CHANNELS 3 Zrotation Xrotation Yrotation
			JOINT LeftAnkle
			{
				OFFSET -0.0000 -41.7317 0.0000
				CHANNELS 3 Zrotation Xrotation Yrotation
				End Site
				{
					OFFSET -0.0000 -4.9167 16.7167
				}
			}
		}
	}
	JOINT RightHip
	{
		OFFSET -11.8000 0.0000 0.0000
		CHANNELS 3 Zrotation Xrotation Yrotation
		JOINT RightKnee
		{
			OFFSET -0.0000 -39.7832 0.0000
			CHANNELS 3 Zrotation Xrotation Yrotation
			JOINT RightAnkle
			{
				OFFSET -0.0000 -41.7317 0.0000
				CHANNELS 3 Zrotation Xrotation Yrotation
				End Site
				{
					OFFSET -0.0000 -4.9167 16.7167
				}
			}
		}
	}
}
MOTION
Frames: 23
Frame Time: 0.010000
-5.3681 90.2690 80.5198 358.5292 353.8755 176.4346 356.4298 351.0857 359.4612 2.5030 15.3339 359.4435 356.8770 358.7417 3.8420 353.6534 12.5135 4.5694 337.8544 357.3441 13.4861 337.4991 54.3990 323.3440 17.2272 351.8643 310.6817 90.1730 356.0687 350.8296 27.3399 356.4600 345.5351 43.3444 44.5132 3.3659 338.5458 353.5038 33.4966 271.2530 356.0252 6.3712 353.6716 351.5352 2.7598 356.5628 18.6374 358.0716 4.5024 348.5773 20.5918 353.5347 341.5220 0.5345 21.8019 55.7373 1.8267 355.9411 339.5693 323.1155 
-5.3406 90.3028 79.7858 358.6606 353.9698 176.4703 356.4751 351.1246 359.3845 2.6820 15.3960 359.3096 356.8934 358.8883 3.9675 353.6178 12.4372 4.6905 337.8222 357.3721 13.5139 337.9892 54.2800 322.7138 17.4398 351.7927 310.4253 90.1185 355.9907 350.7608 27.2969 356.5073 345.6093 43.2465 44.1274 3.2506 338.5681 353.4391 33.8778 271.0483 355.9566 6.2559 353.8174 352.3946 2.7668 356.5022 18.1861 358.1161 4.3137 348.3741 20.7215 353.6608 340.6692 0.6775 21.3161 54.6220 2.3813 356.2895 338.6453 322.5923 
-5.3274 90.3226 79.0542 358.7823 354.0407 176.5363 356.6515 351.1937 359.2532 2.6456 15.3787 359.1571 357.0828 358.9976 4.0235 353.4843 12.4184 4.7553 337.8328 357.3472 13.4491 338.4348 54.0590 322.2133 17.5848 351.7198 310.1509 90.4184 355.9164 350.8307 27.2215 356.4771 345.4185 43.2387 44.1314 3.3784 338.3087 353.2741 34.0359 271.0253 355.9001 6.0872 353.9318 353.2390 2.7457 356.4780 17.6379 358.1354 4.0137 348.1687 20.7766 353.7370 339.8380 0.7028 20.7399 53.4227 3.1179 355.6373 338.5203 322.1068 
-5.2960 90.3346 78.3136 358.9194 354.1363 176.5686 356.6814 351.4539 359.2649 2.8841 15.0210 359.1437 357.0562 359.4943 4.0394 353.4825 12.0772 4.7389 337.7333 357.3164 13.5589 339.2468 54.1591 321.2281 17.6846 351.6941 310.0923 90.6328 355.9517 351.0570 27.2295 356.4570 345.3543 43.1054 43.9306 3.1130 338.3180 353.2523 34.3144 270.9538 355.8766 6.0347 354.0934 354.1301 2.8688 356.4440 17.1299 358.4303 2.8289 347.8114 20.3646 353.8614 339.1128 0.8093 20.1957 52.0247 3.5904 355.7718 337.9077 321.7512 
-5.2635 90.3342 77.5683 359.0248 354.2194 176.5709 356.8444 351.4952 359.1799 2.8387 15.0439 359.0376 357.2405 359.6083 4.0855 353.3963 12.0246 4.7882 337.7784 357.3555 13.4878 339.7113 54.0123 320.6626 17.8069 351.5801 309.8309 90.8543 356.0462 351.3328 27.3501 356.4216 345.3676 43.0112 43.5895 2.9422 338.3431 353.2061 34.6439 270.9078 355.8230 6.0617 354.2428 355.0931 2.7792 356.2981 16.4231 358.7727 3.3687 347.8683 20.1349 353.9687 338.3937 0.8697 19.5519 50.5680 4.1833 355.5545 337.6975 321.2371 
-5.2446 90.3042 76.8428 359.1255 354.2798 176.6699 357.0573 351.5955 359.0591 2.7551 14.9693 358.9043 357.3032 359.7125 4.1531 353.4361 11.9850 4.8475 337.7808 357.3246 13.6810 340.8337 54.0675 319.3610 18.0546 351.4307 309.8552 90.6081 355.9400 351.4205 27.4334 356.3988 345.3719 42.9655 43.3926 2.7817 338.2693 353.1075 34.9126 270.9371 355.8003 6.0395 354.3401 355.9274 2.7442 356.2831 15.9250 358.6575 2.8117 347.6376 20.3552 354.0067 337.7064 0.8286 18.9585 49.0012 4.6115 355.6231 337.2358 320.9245 
-5.2120 90.2793 76.1240 359.2011 354.3360 176.6717 357.0925 351.6302 359.0206 2.9067 15.0379 358.8525 357.2873 359.6874 4.2249 353.4381 11.9762 4.9190 337.6948 357.2923 13.7193 341.3854 53.9302 318.7282 18.1967 351.3456 309.6201 90.4743 355.8956 351.4663 27.4045 356.4089 345.3828 42.8619 43.2828 2.8573 338.1924 353.0410 35.0118 270.9767 355.7585 6.0098 354.4376 356.7741 2.8077 356.2514 15.4011 358.4441 3.2539 347.5476 20.5479 354.1054 336.9882 0.8494 18.2137 47.3336 5.0792 355.8705 337.0519 320.7001 
-5.1821 90.2431 75.4071 359.2270 354.3147 176.6408 357.2255 351.6283 358.9618 2.8395 14.9872 358.7915 357.2645 359.6872 4.2394 353.5372 12.0637 4.9284 337.7398 357.2886 13.7170 341.6466 53.8129 318.3632 18.3583 351.2292 309.3723 90.6152 355.9211 351.6440 27.5240 356.4185 345.4433 42.7800 43.0662 2.7446 338.1845 353.0050 35.1718 270.9363 355.7952 5.9416 354.4906 357.5517 2.9235 356.2324 14.8519 358.3256 3.4054 347.4684 20.5326 354.1550 336.2707 0.7964 17.4064 45.6209 5.4858 356.0127 337.0291 320.5749 
-5.1541 90.1920 74.6898 359.2452 354.3007 176.6371 357.2902 351.6440 358.9151 2.8587 14.9001 358.7348 357.3458 359.9419 4.2941 353.4777 11.8490 4.9717 337.6728 357.2698 13.6867 341.9655 53.7021 318.0716 18.4465 351.1310 309.0988 90.7431 355.9834 351.8464 27.5946 356.4249 345.4666 42.7475 43.0898 2.7314 338.0493 352.9509 35.1324 270.9890 355.6465 5.8113 354.5320 358.3405 2.9998 356.2049 14.2932 358.1873 3.4606 347.4423 20.5441 354.1671 335.6346 0.7532 16.7422 43.7695 5.6555 355.8032 337.1154 320.6099 
-5.1176 90.1311 73.9704 359.2487 354.2994 176.6587 357.2359 351.6344 358.9040 3.0386 14.9886 358.7038 357.4185 359.7132 4.3290 353.4166 12.0347 5.0287 337.6208 357.2553 13.6927 342.4111 53.5710 317.5112 18.5470 351.0425 308.8759 91.0309 356.0262 352.1615 27.5306 356.4118 345.3720 42.7004 43.1271 2.9430 337.8469 352.8880 35.0493 271.0439 355.6021 5.4936 354.5738 359.1353 3.1120 356.1663 13.7362 358.2815 3.4955 347.3672 20.2639 354.1689 335.0626 0.6736 16.1963 41.7856 5.3642 355.7949 337.1969 320.9251 
-5.0820 90.0571 73.2508 359.2325 354.2808 176.6811 357.1137 351.6194 358.9154 3.2912 15.0317 358.6898 357.5511 359.5613 4.3131 353.2557 12.2051 5.0420 337.4998 357.2486 13.6349 342.9180 53.5154 316.9719 18.6460 350.9584 308.6962 91.0031 356.0051 352.2740 27.4658 356.4071 345.2774 42.7623 43.1951 3.0318 337.6649 352.8310 34.9605 270.9331 355.7513 5.2596 354.5930 359.9094 3.2125 356.1386 13.1969 358.2936 3.8007 347.3394 20.1105 354.1613 334.5135 0.4685 15.5139 39.9715 5.6129 355.9203 337.2242 321.0283 
-5.0449 89.9691 72.5280 359.2126 354.2651 176.7380 357.1337 351.6195 358.8373 3.3380 15.0119 358.6016 357.6763 359.7120 4.2972 353.1400 12.0020 5.0232 337.4583 357.2787 13.5465 343.2026 53.4134 316.6668 18.7216 350.9087 308.5134 90.9681 356.0094 352.3955 27.5251 356.3998 345.2881 42.8174 43.1502 2.9799 337.5678 352.8294 34.8986 270.9207 355.7829 5.1917 354.6108 0.6849 3.2418 356.0940 12.6560 358.2959 3.7364 347.2418 20.0317 354.1120 334.0788 0.3137 14.9469 37.8516 5.8477 355.9517 337.3940 320.8558 
-5.0207 89.8736 71.7998 359.1502 354.2204 176.7821 357.1336 351.5677 358.7880 3.3860 15.0628 358.5492 357.7244 359.4997 4.3972 353.0659 12.2779 5.1533 337.4036 357.2833 13.5569 343.4589 53.2843 316.3320 18.8135 350.8269 308.3756 91.0390 355.9990 352.5639 27.5754 356.3892 345.3337 42.7402 43.1641 3.0638 337.4771 352.8380 34.7913 270.9360 355.7874 5.0745 354.5722 1.4222 3.2372 356.0535 12.1544 358.4155 2.9272 347.0564 19.8413 354.0182 333.6485 0.2706 14.4751 35.5630 6.1459 355.9333 337.6658 320.6613 
-4.9878 89.7661 71.0692 359.0863 354.1639 176.8419 357.1268 351.4805 358.7445 3.4435 15.2064 358.4962 357.6791 359.2854 4.4253 353.1343 12.3415 5.1816 337.4052 357.2765 13.5977 343.7620 53.1708 315.8682 18.8900 350.7643 308.2724 91.1353 355.9951 352.7084 27.5498 356.3701 345.2800 42.6804 43.2504 3.3202 337.3565 352.8307 34.6212 270.9811 355.8072 5.0427 354.5488 2.1261 3.2990 356.0250 11.6977 358.4530 2.3498 346.8870 19.6280 353.9728 333.3237 0.3862 14.0270 33.2106 6.4644 356.2581 337.8909 320.6150 
-4.9487 89.6461 70.3562 359.0213 354.0598 176.9486 357.1164 351.3917 358.6856 3.4990 15.2965 358.4280 357.6868 359.0714 4.4243 353.1472 12.4120 5.1878 337.4288 357.2685 13.6018 344.0020 53.1400 315.4804 18.9926 350.6845 308.2028 91.1736 356.0212 352.7924 27.5892 356.3634 345.2774 42.6076 43.2122 3.4729 337.3452 352.8682 34.5247 270.9743 355.8200 5.0245 354.5349 2.7184 3.3841 356.0216 11.3270 358.3498 2.1524 346.7637 19.5008 353.9322 332.9906 0.4785 13.5940 30.8445 6.7508 356.5672 338.1676 320.5033 
-4.9098 89.5205 69.6349 358.9359 353.9485 177.0709 357.1189 351.3384 358.6236 3.4861 15.2451 358.3700 357.7042 359.1297 4.4125 353.1717 12.2937 5.1650 337.4046 357.2652 13.5597 344.1298 53.1469 315.3412 19.0359 350.6480 308.1432 91.2042 356.0421 352.8084 27.6986 356.3563 345.3129 42.5992 43.2751 3.5036 337.3152 352.8780 34.3685 270.9864 355.8662 5.0057 354.5035 3.2621 3.4961 356.0384 11.0520 358.0903 2.6529 346.7475 19.5306 353.8680 332.7273 0.4595 13.0181 28.4705 7.1633 357.0292 338.4482 320.5957 
-4.8704 89.3902 68.8923 358.8202 353.8673 177.1942 357.0837 351.2904 358.5794 3.4961 15.2189 358.3308 357.6884 359.1460 4.3951 353.1141 12.2228 5.1491 337.3680 357.2742 13.5287 344.2617 53.1775 315.1782 19.0606 350.6335 308.1500 91.4545 356.0481 352.9221 27.8020 356.3356 345.3553 42.5570 43.3463 3.5330 337.2785 352.8916 34.2277 271.0299 355.8823 4.9511 354.4458 3.8194 3.6215 356.0497 10.8201 357.9704 3.0373 346.7093 19.4250 353.7763 332.5939 0.5566 12.4410 25.9183 7.5590 357.5374 338.7939 320.7658 
-4.8278 89.2522 68.1422 358.6936 353.7835 177.3425 357.0161 351.2309 358.5483 3.5602 15.2558 358.2981 357.6422 358.9534 4.3406 353.0612 12.3302 5.1110 337.3417 357.2795 13.5225 344.4873 53.2497 314.8460 19.1222 350.6102 308.2112 91.5828 356.0504 353.0268 27.9048 356.3152 345.3619 42.4442 43.3008 3.5980 337.3215 352.9444 34.1812 271.0109 355.9462 4.9538 354.3808 4.3416 3.7135 356.0567 10.6344 358.1551 2.6149 346.5216 18.9840 353.6765 332.5238 0.7797 11.9526 23.3951 7.9080 357.8889 339.0145 320.9287 
-4.7866 89.1096 67.3709 358.5667 353.7545 177.5231 356.9379 351.2359 358.5353 3.6270 15.2640 358.2828 357.6505 358.7548 4.2499 353.0635 12.4741 5.0323 337.2946 357.2776 13.4726 344.5424 53.2875 314.7362 19.0937 350.6606 308.2201 91.6473 356.0945 352.9649 27.9523 356.3109 345.2375 42.3856 43.4273 3.7804 337.2874 352.9416 34.0264 271.0189 356.0067 4.8819 354.3074 4.9180 3.7763 356.0745 10.4779 358.2518 2.3227 346.3265 18.6691 353.5776 332.5517 1.0685 11.5143 21.0315 7.9155 357.9539 339.1666 321.3292 
-4.7367 88.9617 66.5834 358.4282 353.7458 177.7170 356.8368 351.2219 358.5353 3.7109 15.3286 358.2773 357.6773 358.5548 4.1645 353.0576 12.5781 4.9570 337.2622 357.2933 13.3588 344.4760 53.3213 314.7642 19.0228 350.7145 308.2223 91.6108 356.1058 352.8689 27.9583 356.2876 345.0606 42.3419 43.6919 4.0614 337.1526 352.9200 33.7445 270.9903 355.9494 4.6849 354.2232 5.5053 3.7913 356.1119 10.3751 357.9959 2.3103 346.1909 18.7397 353.5076 332.5984 1.5093 11.0246 18.8356 7.7273 358.1208 339.2216 321.7863 
-4.6750 88.8055 65.8049 358.2819 353.6910 177.9225 356.9196 351.2110 358.4460 3.5154 15.3289 358.2032 357.6419 358.3921 4.1145 353.2205 12.5805 4.8936 337.3922 357.3153 13.3398 344.5390 53.4687 314.6050 19.0696 350.6946 308.3767 91.4930 356.0390 352.8636 28.1066 356.2354 345.0091 42.3341 43.8494 4.1550 337.0820 352.9638 33.5514 271.0045 355.9306 4.6047 354.1502 5.9770 3.8357 356.1459 10.3882 357.7750 2.5345 346.2155 18.6093 353.4492 332.5780 2.0863 10.5324 16.9430 7.5532 358.0570 339.3128 322.1378 
-4.6040 88.6484 65.0151 358.1441 353.6475 178.1309 356.9582 351.1730 358.3796 3.4111 15.4193 358.1465 357.4855 358.1409 4.0886 353.4499 12.5923 4.8514 337.5039 357.3222 13.4193 344.5123 53.5889 314.4807 19.1020 350.7104 308.5591 91.4834 356.0061 352.9311 28.1661 356.2263 345.0402 42.3715 44.0168 4.2784 337.0231 352.9949 33.3645 270.8621 355.9907 4.5702 354.0943 6.4270 3.8993 356.1990 10.4890 357.3471 2.8631 346.2550 18.6810 353.4524 332.5728 2.5677 9.9916 15.3494 7.3296 358.0387 339.3529 322.5601 
-4.5242 88.4882 64.2137 358.0148 353.6289 178.3613 356.9558 351.1105 358.3234 3.3662 15.5923 358.0938 357.4192 357.9011 4.0289 353.5691 12.5663 4.7822 337.5679 357.3407 13.4180 344.4249 53.6807 314.4705 19.0485 350.7905 308.7386 91.3901 355.9454 352.8415 28.2696 356.2063 345.0638 42.3626 44.1816 4.4359 336.9498 353.0046 33.1468 270.6466 355.9382 4.5614 354.0518 6.8713 3.9641 356.2509 10.6226 357.3036 3.1185 346.1162 18.5316 353.4893 332.5695 3.0092 9.4969 14.0021 6.9981 358.0954 339.4177 322.8935 
